<svg xmlns="http://www.w3.org/2000/svg" viewBox="0 0 300 400" preserveAspectRatio="xMidYMid slice">
  <defs>
    <linearGradient id="g" x1="0" y1="0" x2="1" y2="1"><stop offset="0" stop-color="#0d3a2a"/><stop offset="0.5" stop-color="#125b3a"/><stop offset="1" stop-color="#06160f"/></linearGradient>
    <radialGradient id="s" cx="0.5" cy="0.28" r="0.6"><stop offset="0" stop-color="#19e57f" stop-opacity="0.5"/><stop offset="1" stop-color="#19e57f" stop-opacity="0"/></radialGradient>
    <linearGradient id="gem" x1="0" y1="0" x2="0" y2="1"><stop offset="0" stop-color="#eafdff"/><stop offset="0.5" stop-color="#3fe0ff"/><stop offset="1" stop-color="#0c9fd6"/></linearGradient>
  </defs>
  <rect width="300" height="400" fill="url(#g)"/><rect width="300" height="400" fill="url(#s)"/>
  <g opacity="0.9">
    <path d="M118 120 H182 L196 140 L150 196 L104 140 Z" fill="url(#gem)" stroke="#0a4a63" stroke-width="3" stroke-linejoin="round"/>
    <path d="M118 120 130 140 H104 Z" fill="#fff" opacity="0.3"/>
  </g>
  <g fill="#1a2238" stroke="rgba(255,255,255,.08)">
    <rect x="80" y="220" width="46" height="40" rx="6"/><rect x="128" y="220" width="46" height="40" rx="6" fill="#19e57f" fill-opacity=".25"/><rect x="176" y="220" width="46" height="40" rx="6"/>
    <rect x="80" y="266" width="46" height="40" rx="6"/><rect x="128" y="266" width="46" height="40" rx="6"/><rect x="176" y="266" width="46" height="40" rx="6"/>
  </g>
  <g font-family="system-ui,Segoe UI,sans-serif" text-anchor="middle">
    <text x="150" y="350" font-size="26" font-weight="900" fill="#fff">Nova Tower</text>
    <text x="150" y="378" font-size="14" fill="#8fe0b8">Subí y multiplicá</text>
  </g>
</svg>
