<svg xmlns="http://www.w3.org/2000/svg" viewBox="0 0 300 400">
  <defs>
    <radialGradient id="bg" cx="50%" cy="38%" r="75%"><stop offset="0" stop-color="#12603c"/><stop offset="1" stop-color="#062316"/></radialGradient>
    <radialGradient id="hub" cx="50%" cy="50%" r="50%"><stop offset="0" stop-color="#ffe89a"/><stop offset="1" stop-color="#b87e0a"/></radialGradient>
  </defs>
  <rect width="300" height="400" fill="url(#bg)"/>
  <g transform="translate(150,168)">
    <circle r="112" fill="#0a1c12" stroke="#ffc83d" stroke-width="5"/>
    <g>
      <path d="M0 0 L97 -56 A112 112 0 0 1 97 56 Z" fill="#e3143c"/>
      <path d="M0 0 L97 56 A112 112 0 0 1 0 112 Z" fill="#1a2330"/>
      <path d="M0 0 L0 112 A112 112 0 0 1 -97 56 Z" fill="#e3143c"/>
      <path d="M0 0 L-97 56 A112 112 0 0 1 -97 -56 Z" fill="#1a2330"/>
      <path d="M0 0 L-97 -56 A112 112 0 0 1 0 -112 Z" fill="#e3143c"/>
      <path d="M0 0 L0 -112 A112 112 0 0 1 97 -56 Z" fill="#1a2330"/>
    </g>
    <circle r="58" fill="#0a1c12" stroke="#ffc83d" stroke-width="3"/>
    <circle r="30" fill="url(#hub)"/>
    <circle cx="0" cy="-86" r="9" fill="#fff"/>
  </g>
  <text x="150" y="350" font-family="'Sora','Arial Black',sans-serif" font-size="38" font-weight="800" fill="#fff" text-anchor="middle" letter-spacing="2">RULETA</text>
  <text x="150" y="376" font-family="Arial,sans-serif" font-size="15" fill="#ffc83d" text-anchor="middle" letter-spacing="3">EUROPEA</text>
</svg>
