<svg xmlns="http://www.w3.org/2000/svg" viewBox="0 0 300 400" preserveAspectRatio="xMidYMid slice">
  <defs>
    <linearGradient id="g" x1="0" y1="0" x2="1" y2="1"><stop offset="0" stop-color="#5e2a13"/><stop offset="0.5" stop-color="#8c5016"/><stop offset="1" stop-color="#1a0d04"/></linearGradient>
    <radialGradient id="s" cx="0.5" cy="0.28" r="0.6"><stop offset="0" stop-color="#ffc83d" stop-opacity="0.4"/><stop offset="1" stop-color="#ffc83d" stop-opacity="0"/></radialGradient>
  </defs>
  <rect width="300" height="400" fill="url(#g)"/><rect width="300" height="400" fill="url(#s)"/>
  <g>
    <rect x="20" y="120" width="260" height="110" rx="8" fill="#1c1c22"/>
    <g stroke="#ffd23d" stroke-width="3" stroke-dasharray="14 12"><line x1="20" y1="175" x2="280" y2="175"/></g>
  </g>
  <g transform="translate(95 168)">
    <ellipse cx="0" cy="20" rx="34" ry="9" fill="#000" opacity="0.25"/>
    <ellipse cx="0" cy="-4" rx="26" ry="28" fill="#fff" stroke="#e8c64a" stroke-width="2"/>
    <circle cx="0" cy="-28" r="16" fill="#fff" stroke="#e8c64a" stroke-width="2"/>
    <path d="M-2 -42 q-2 -10 8 -10 q6 6 -2 12 z" fill="#e3143c"/>
    <path d="M14 -30 l14 4 -14 5 z" fill="#ff9f1a"/>
    <circle cx="6" cy="-30" r="3" fill="#1b1f2e"/>
    <rect x="-8" y="20" width="4" height="12" fill="#ff9f1a"/><rect x="6" y="20" width="4" height="12" fill="#ff9f1a"/>
  </g>
  <g font-family="system-ui,Segoe UI,sans-serif" text-anchor="middle">
    <text x="220" y="150" font-size="22" font-weight="900" fill="#19e57f">6.5x</text>
    <text x="150" y="330" font-size="27" font-weight="900" fill="#fff">Nova Chicken</text>
    <text x="150" y="358" font-size="14" fill="#ffd9a6">Cruza y multiplica</text>
  </g>
</svg>
