<svg xmlns="http://www.w3.org/2000/svg" viewBox="0 0 300 400" preserveAspectRatio="xMidYMid slice">
  <defs>
    <linearGradient id="g" x1="0" y1="0" x2="1" y2="1"><stop offset="0" stop-color="#0a3b2a"/><stop offset="0.5" stop-color="#10543d"/><stop offset="1" stop-color="#040f0a"/></linearGradient>
    <radialGradient id="s" cx="0.5" cy="0.28" r="0.6"><stop offset="0" stop-color="#19e57f" stop-opacity="0.32"/><stop offset="1" stop-color="#19e57f" stop-opacity="0"/></radialGradient>
  </defs>
  <rect width="300" height="400" fill="url(#g)"/><rect width="300" height="400" fill="url(#s)"/>
  <g font-family="Georgia,serif" font-weight="800" text-anchor="middle">
    <g transform="rotate(-14 70 165)"><rect x="40" y="110" width="62" height="92" rx="9" fill="#f7f9ff" stroke="#cbd3e6" stroke-width="2"/><text x="71" y="166" font-size="40" fill="#1b1f2e">10</text><text x="52" y="128" font-size="14" fill="#1b1f2e">♠</text></g>
    <g transform="rotate(-7 110 155)"><rect x="82" y="104" width="62" height="92" rx="9" fill="#f7f9ff" stroke="#cbd3e6" stroke-width="2"/><text x="113" y="160" font-size="40" fill="#e3143c">J</text><text x="94" y="122" font-size="14" fill="#e3143c">♥</text></g>
    <g><rect x="124" y="100" width="62" height="92" rx="9" fill="#f7f9ff" stroke="#cbd3e6" stroke-width="2"/><text x="155" y="156" font-size="40" fill="#1b1f2e">Q</text><text x="136" y="118" font-size="14" fill="#1b1f2e">♣</text></g>
    <g transform="rotate(7 190 155)"><rect x="166" y="104" width="62" height="92" rx="9" fill="#f7f9ff" stroke="#cbd3e6" stroke-width="2"/><text x="197" y="160" font-size="40" fill="#e3143c">K</text><text x="178" y="122" font-size="14" fill="#e3143c">♦</text></g>
    <g transform="rotate(14 230 165)"><rect x="200" y="110" width="62" height="92" rx="9" fill="#f7f9ff" stroke="#cbd3e6" stroke-width="2"/><text x="231" y="166" font-size="40" fill="#e3143c">A</text><text x="212" y="128" font-size="14" fill="#e3143c">♥</text></g>
  </g>
  <g font-family="system-ui,Segoe UI,sans-serif" text-anchor="middle">
    <text x="150" y="332" font-size="29" font-weight="900" fill="#fff">Nova Poker</text>
    <text x="150" y="360" font-size="14" fill="#9affc4">Jacks or Better</text>
  </g>
</svg>
